<svg xmlns="http://www.w3.org/2000/svg" width="151.54" height="164.028"><g fill-rule="evenodd" clip-rule="evenodd" fill="#FFF"><path d="M12.49 71.585zM14.546 71.39zM42.993 110.321zM14.787 71.401l.008-.004-.062-.002.054.006z"/><path d="M139.883 30.074l-54.54-27.79A21.128 21.128 0 0 0 75.763 0c-3.452 0-6.71.823-9.592 2.284l-54.513 27.79C4.695 33.587.001 40.757.001 49.032v65.965c0 8.274 4.694 15.444 11.658 18.958l54.513 27.79a21.153 21.153 0 0 0 9.592 2.284c3.45 0 6.699-.825 9.58-2.284l54.54-27.79c6.964-3.513 11.657-10.683 11.657-18.958V49.032c-.001-8.275-4.694-15.445-11.658-18.958zm-88.207 74.574c-.565 1.233-1.389 2.124-2.463 2.667l-7.101 3.59c.062-.031.114-.075.174-.108-.802.447-1.742.701-2.833.735-.359.014-1.256-.047-2.71-.188-.008.294-.017.611-.025.966l-.014.411-6.662 3.368 6.404 3.326-.038 10.982-7.101 3.59-9.981-5.184.038-10.982 6.663-3.368-6.639-3.448.002-.433c.01-2.937.125-4.89.357-5.977.374-1.785 1.165-2.974 2.354-3.544-.022.01-.047.015-.069.026l7.101-3.59c.225-.114.464-.204.719-.272.896-.231 2.236-.287 3.975-.181.396.033.977.084 1.741.153.015-.292.028-.586.029-.913.011-3.145-.482-5.453-1.474-6.851-.916-1.312-3.189-2.919-6.763-4.775a52.036 52.036 0 0 0-1.968-.967c.005.452.015 1.03.032 1.766l.005.452-7.101 3.59-10.039-5.215.008-.445c.035-1.004.05-1.669.051-1.994.096-3.914.454-6.446 1.087-7.758.614-1.246 1.575-2.054 2.864-2.437a4.997 4.997 0 0 0-.819.313l7.101-3.59c1.454-.735 3.454-.767 5.981-.095 2.562.704 6.055 2.2 10.377 4.445 4.442 2.307 7.787 4.431 9.945 6.319 3.563 3.105 5.9 6.626 6.94 10.457.552 2.044.828 4.688.817 7.872-.012 3.485-.338 5.932-.965 7.287z"/><path d="M43.968 109.271c.055-.077.114-.149.165-.23-.051.082-.11.153-.165.23zM43.384 109.966c.075-.075.151-.149.223-.23-.071.081-.148.155-.223.23z"/></g></svg>