<svg xmlns="http://www.w3.org/2000/svg" width="151.54" height="164.028"><g fill-rule="evenodd" clip-rule="evenodd" fill="#FFF"><path d="M43.126 105.971c.016-.506.025-1.073.027-1.715.01-2.767-.148-4.753-.481-5.902-.571-1.984-2.006-3.752-4.267-5.259-.804-.549-1.856-1.158-3.117-1.813l-8.329-4.326-.037 10.649 14.708 7.639c.527.275 1.02.51 1.496.727z"/><path d="M139.882 30.074l-54.54-27.79A21.12 21.12 0 0 0 75.763 0c-3.452 0-6.71.823-9.592 2.284l-54.513 27.79C4.694 33.587 0 40.757 0 49.032v65.965c0 8.274 4.694 15.444 11.658 18.958l54.513 27.79a21.153 21.153 0 0 0 9.592 2.284c3.45 0 6.699-.825 9.58-2.284l54.54-27.79c6.963-3.513 11.658-10.683 11.658-18.958V49.032c-.001-8.275-4.695-15.445-11.659-18.958zM61.218 131.329l-.044 12.528-7.101 3.59-11.583-6.017.036-10.425c.036-2.978-.603-5.454-1.892-7.362-1.271-1.778-3.155-3.344-5.589-4.608-.179-.093-.36-.184-.545-.274l-7.639-3.967-.039 11.221-7.101 3.59-11.463-5.954.197-56.332 7.101-3.59 27.857 14.469c5.386 2.798 9.42 5.605 11.995 8.344 2.808 2.968 4.726 6.349 5.704 10.047.551 2.175.827 4.912.816 8.151-.014 4.042-.354 6.931-1.001 8.593-.493 1.297-1.254 2.207-2.279 2.724l-3.373 1.705c4.048 3.561 6.048 8.108 5.943 13.567z"/></g></svg>