<svg width="165" height="165" xmlns="http://www.w3.org/2000/svg"><g><path d="M151.5 115c0 8.3-4.7 15.4-11.7 19l-54.5 27.8c-2.9 1.5-6.1 2.3-9.6 2.3s-6.7-.8-9.6-2.3L11.7 134C4.7 130.4 0 123.3 0 115V49c0-8.3 4.7-15.4 11.7-19L66.2 2.3C69.1.8 72.3 0 75.8 0s6.7.8 9.6 2.3l54.5 27.8c7 3.5 11.7 10.7 11.7 19V115h-.1z" fill="#FFF"/><path d="M54.4 118.3l4.1-2.1c1-.5 1.7-1.4 2.2-2.7.6-1.7.9-4.7.9-9 0-3.3-.3-6.1-.9-8.2-1-3.8-3-7.2-6-10.2-2.5-2.5-6.5-5.2-12.1-8L14.8 63.9l-6.3 3.2v55.8l13 6.6 6.3-3.2v-10.2l6.7 3.4c5 2.4 7.4 6.3 7.3 11.6v8.7l13 6.6 6.3-3.2v-11.1c.1-5.6-2.1-10.2-6.7-13.8zm-13.3-12.7l-13.4-6.8V88l7 3.6c1.3.6 2.2 1.2 2.9 1.6 2.1 1.4 3.4 3.1 4 5.1.3 1 .4 2.7.4 4.9v2.8c-.2-.1-.5-.3-.9-.4z"/></g></svg>